TITLE ""
FILE "1Q_t_1620-1629.mp3" MP3
  TRACK 01 AUDIO
    TITLE "1Q_t_1620-1629_01"
    INDEX 01 00:00:00
  TRACK 02 AUDIO
    TITLE "1Q_t_1620-1629_02"
    INDEX 01 00:01:12
  TRACK 03 AUDIO
    TITLE "1Q_t_1620-1629_03"
    INDEX 01 00:01:22
  TRACK 04 AUDIO
    TITLE "1Q_t_1620-1629_04"
    INDEX 01 00:03:56
  TRACK 05 AUDIO
    TITLE "1Q_t_1620-1629_05"
    INDEX 01 00:03:63
  TRACK 06 AUDIO
    TITLE "1Q_t_1620-1629_06"
    INDEX 01 00:07:36
  TRACK 07 AUDIO
    TITLE "1Q_t_1620-1629_07"
    INDEX 01 00:08:08
  TRACK 08 AUDIO
    TITLE "1Q_t_1620-1629_08"
    INDEX 01 00:09:23
  TRACK 09 AUDIO
    TITLE "1Q_t_1620-1629_09"
    INDEX 01 00:09:33
  TRACK 10 AUDIO
    TITLE "1Q_t_1620-1629_10"
    INDEX 01 00:12:35
  TRACK 11 AUDIO
    TITLE "1Q_t_1620-1629_11"
    INDEX 01 00:12:45
  TRACK 12 AUDIO
    TITLE "1Q_t_1620-1629_12"
    INDEX 01 00:16:29
  TRACK 13 AUDIO
    TITLE "1Q_t_1620-1629_13"
    INDEX 01 00:17:01
  TRACK 14 AUDIO
    TITLE "1Q_t_1620-1629_14"
    INDEX 01 00:18:16
  TRACK 15 AUDIO
    TITLE "1Q_t_1620-1629_15"
    INDEX 01 00:18:28
  TRACK 16 AUDIO
    TITLE "1Q_t_1620-1629_16"
    INDEX 01 00:20:17
  TRACK 17 AUDIO
    TITLE "1Q_t_1620-1629_17"
    INDEX 01 00:20:27
  TRACK 18 AUDIO
    TITLE "1Q_t_1620-1629_18"
    INDEX 01 00:24:75
  TRACK 19 AUDIO
    TITLE "1Q_t_1620-1629_19"
    INDEX 01 00:25:49
  TRACK 20 AUDIO
    TITLE "1Q_t_1620-1629_20"
    INDEX 01 00:26:66
  TRACK 21 AUDIO
    TITLE "1Q_t_1620-1629_21"
    INDEX 01 00:27:01
  TRACK 22 AUDIO
    TITLE "1Q_t_1620-1629_22"
    INDEX 01 00:29:65
  TRACK 23 AUDIO
    TITLE "1Q_t_1620-1629_23"
    INDEX 01 00:29:73
  TRACK 24 AUDIO
    TITLE "1Q_t_1620-1629_24"
    INDEX 01 00:34:70
  TRACK 25 AUDIO
    TITLE "1Q_t_1620-1629_25"
    INDEX 01 00:35:42
  TRACK 26 AUDIO
    TITLE "1Q_t_1620-1629_26"
    INDEX 01 00:36:61
  TRACK 27 AUDIO
    TITLE "1Q_t_1620-1629_27"
    INDEX 01 00:36:73
  TRACK 28 AUDIO
    TITLE "1Q_t_1620-1629_28"
    INDEX 01 00:38:25
  TRACK 29 AUDIO
    TITLE "1Q_t_1620-1629_29"
    INDEX 01 00:38:32
  TRACK 30 AUDIO
    TITLE "1Q_t_1620-1629_30"
    INDEX 01 00:42:20
  TRACK 31 AUDIO
    TITLE "1Q_t_1620-1629_31"
    INDEX 01 00:42:67
  TRACK 32 AUDIO
    TITLE "1Q_t_1620-1629_32"
    INDEX 01 00:43:71
  TRACK 33 AUDIO
    TITLE "1Q_t_1620-1629_33"
    INDEX 01 00:44:06
  TRACK 34 AUDIO
    TITLE "1Q_t_1620-1629_34"
    INDEX 01 00:47:43
  TRACK 35 AUDIO
    TITLE "1Q_t_1620-1629_35"
    INDEX 01 00:47:53
  TRACK 36 AUDIO
    TITLE "1Q_t_1620-1629_36"
    INDEX 01 00:53:05
  TRACK 37 AUDIO
    TITLE "1Q_t_1620-1629_37"
    INDEX 01 00:53:54
  TRACK 38 AUDIO
    TITLE "1Q_t_1620-1629_38"
    INDEX 01 00:54:57
  TRACK 39 AUDIO
    TITLE "1Q_t_1620-1629_39"
    INDEX 01 00:54:67
  TRACK 40 AUDIO
    TITLE "1Q_t_1620-1629_40"
    INDEX 01 00:56:34
  TRACK 41 AUDIO
    TITLE "1Q_t_1620-1629_41"
    INDEX 01 00:56:42
  TRACK 42 AUDIO
    TITLE "1Q_t_1620-1629_42"
    INDEX 01 01:00:63
  TRACK 43 AUDIO
    TITLE "1Q_t_1620-1629_43"
    INDEX 01 01:01:37
  TRACK 44 AUDIO
    TITLE "1Q_t_1620-1629_44"
    INDEX 01 01:02:51
  TRACK 45 AUDIO
    TITLE "1Q_t_1620-1629_45"
    INDEX 01 01:02:62
  TRACK 46 AUDIO
    TITLE "1Q_t_1620-1629_46"
    INDEX 01 01:04:14
  TRACK 47 AUDIO
    TITLE "1Q_t_1620-1629_47"
    INDEX 01 01:04:24
  TRACK 48 AUDIO
    TITLE "1Q_t_1620-1629_48"
    INDEX 01 01:08:53
  TRACK 49 AUDIO
    TITLE "1Q_t_1620-1629_49"
    INDEX 01 01:09:25
  TRACK 50 AUDIO
    TITLE "1Q_t_1620-1629_50"
    INDEX 01 01:10:32
  TRACK 51 AUDIO
    TITLE "1Q_t_1620-1629_51"
    INDEX 01 01:10:44
  TRACK 52 AUDIO
    TITLE "1Q_t_1620-1629_52"
    INDEX 01 01:12:22
  TRACK 53 AUDIO
    TITLE "1Q_t_1620-1629_53"
    INDEX 01 01:12:31
  TRACK 54 AUDIO
    TITLE "1Q_t_1620-1629_54"
    INDEX 01 01:17:42
  TRACK 55 AUDIO
    TITLE "1Q_t_1620-1629_55"
    INDEX 01 01:18:12
  TRACK 56 AUDIO
    TITLE "1Q_t_1620-1629_56"
    INDEX 01 01:19:12
  TRACK 57 AUDIO
    TITLE "1Q_t_1620-1629_57"
    INDEX 01 01:19:22
  TRACK 58 AUDIO
    TITLE "1Q_t_1620-1629_58"
    INDEX 01 01:20:64
  TRACK 59 AUDIO
    TITLE "1Q_t_1620-1629_59"
    INDEX 01 01:20:72
  TRACK 60 AUDIO
    TITLE "1Q_t_1620-1629_60"
    INDEX 01 01:25:16
